<svg xmlns="http://www.w3.org/2000/svg" width="1280" height="450" viewBox="0 0 1280 450"><rect width="100%" height="100%" fill="#DDDDDD"/><path fill="#999999" d="M412.575 150.19h21.31v151.83h-24.88v-98.07q0-5.88.63-12.7l-45.89 86.2q-3.25 6.19-9.97 6.19h-3.99q-6.72 0-9.98-6.19l-46.41-86.52q.32 3.46.53 6.82t.21 6.2v98.07h-24.89V150.19h21.32q1.89 0 3.25.11 1.37.1 2.47.52t2 1.36q.89.95 1.73 2.53l45.46 84.31q1.79 3.36 3.31 6.93t2.99 7.35q1.47-3.88 3.05-7.51 1.57-3.62 3.36-6.98l44.83-84.1q.84-1.58 1.79-2.53.94-.94 2.05-1.36 1.1-.42 2.46-.52 1.37-.11 3.26-.11m98.7 42.42q11.97 0 21.79 3.89 9.81 3.88 16.8 11.02 6.98 7.14 10.76 17.43t3.78 23q0 12.8-3.78 23.1-3.78 10.29-10.76 17.53-6.99 7.25-16.8 11.13-9.82 3.88-21.79 3.88-12.08 0-21.95-3.88t-16.85-11.13q-6.98-7.24-10.81-17.53-3.84-10.3-3.84-23.1 0-12.71 3.84-23 3.83-10.29 10.81-17.43t16.85-11.02q9.87-3.89 21.95-3.89m0 91.03q13.44 0 19.9-9.02 6.45-9.03 6.45-26.46 0-17.44-6.45-26.57-6.46-9.13-19.9-9.13-13.65 0-20.21 9.18-6.57 9.19-6.57 26.52 0 17.32 6.57 26.4 6.56 9.08 20.21 9.08m149.62-89.35h20.48l-42.74 107.73h-23.52l-42.73-107.73h21.42q2.94 0 4.88 1.37 1.94 1.36 2.57 3.46l20.79 57.54q1.68 5.04 2.94 9.87t2.21 9.66q1.05-4.83 2.31-9.66t3.04-9.87l21.21-57.54q.74-2.1 2.63-3.46 1.89-1.37 4.51-1.37m35.07 0h26.04v107.73h-26.04zm29.61-31.4q0 3.37-1.36 6.31-1.37 2.94-3.62 5.14-2.26 2.21-5.31 3.52-3.04 1.31-6.51 1.31-3.36 0-6.35-1.31t-5.2-3.52q-2.2-2.2-3.51-5.14-1.32-2.94-1.32-6.31 0-3.46 1.32-6.5 1.31-3.05 3.51-5.25 2.21-2.21 5.2-3.52 2.99-1.32 6.35-1.32 3.47 0 6.51 1.32 3.05 1.31 5.31 3.52 2.25 2.2 3.62 5.25 1.36 3.04 1.36 6.5m43.37 72.88h48.93q0-5.05-1.42-9.51t-4.25-7.82q-2.84-3.36-7.19-5.3-4.36-1.95-10.14-1.95-11.23 0-17.69 6.41-6.46 6.4-8.24 18.17m66.15 15.64h-66.68q.63 8.3 2.94 14.33 2.31 6.04 6.09 9.98t8.98 5.88 11.5 1.94 10.87-1.47q4.56-1.47 7.98-3.25 3.41-1.79 5.98-3.26t4.99-1.47q3.25 0 4.83 2.41l7.45 9.46q-4.3 5.03-9.66 8.45-5.35 3.41-11.18 5.46t-11.86 2.88q-6.04.84-11.71.84-11.24 0-20.9-3.72-9.66-3.73-16.8-11.03-7.14-7.29-11.23-18.06-4.1-10.76-4.1-24.93 0-11.03 3.57-20.74 3.57-9.72 10.24-16.91t16.28-11.39q9.6-4.2 21.68-4.2 10.18 0 18.79 3.25 8.61 3.26 14.81 9.51 6.19 6.24 9.71 15.33 3.52 9.08 3.52 20.73 0 5.89-1.26 7.93-1.26 2.05-4.83 2.05m88.72-56.49-13.65-2.42q1.58-10.92 6.09-19.16 4.52-8.24 11.29-13.75t15.54-8.3q8.77-2.78 18.85-2.78 10.5 0 18.95 2.99t14.44 8.3q5.98 5.3 9.19 12.44 3.2 7.14 3.2 15.44 0 7.24-1.63 12.75t-4.67 9.61q-3.05 4.1-7.56 6.93-4.52 2.83-10.19 4.72 13.65 4.31 20.37 13.13t6.72 22.15q0 11.35-4.2 20.06-4.2 8.72-11.34 14.65t-16.53 8.98q-9.4 3.04-19.9 3.04-11.45 0-19.95-2.62-8.51-2.63-14.81-7.77-6.3-5.15-10.71-12.6-4.41-7.46-7.56-17.22l11.45-4.73q4.51-1.89 8.45-1 3.94.9 5.72 4.26 1.89 3.67 4.15 7.24t5.41 6.35 7.4 4.52q4.25 1.73 10.13 1.73 6.62 0 11.55-2.15 4.94-2.15 8.25-5.62 3.3-3.46 4.93-7.72 1.63-4.25 1.63-8.55 0-5.46-1.16-9.93-1.15-4.46-4.83-7.61-3.67-3.15-10.55-4.93-6.88-1.79-18.43-1.79v-18.48q9.56-.11 15.86-1.78 6.3-1.69 10.03-4.68 3.72-2.99 5.19-7.19t1.47-9.24q0-10.71-5.98-16.27-5.99-5.57-15.96-5.57-4.62 0-8.51 1.31-3.88 1.32-6.98 3.68t-5.2 5.51-3.15 6.93q-1.78 4.83-4.67 6.41-2.89 1.57-8.14.73"/></svg>