<svg xmlns="http://www.w3.org/2000/svg" width="320" height="180" viewBox="0 0 320 180"><rect width="100%" height="100%" fill="#DDDDDD"/><path fill="#999999" d="M88.485 75.425v4.53h-8.94v25.11h-5.51v-25.11h-8.94v-4.53zm8.16-.82v11.68q1.23-1.15 2.71-1.86 1.47-.72 3.46-.72 1.72 0 3.06.58 1.33.59 2.22 1.64.89 1.06 1.35 2.52.46 1.47.46 3.23v13.39h-5.06v-13.39q0-1.92-.88-2.98t-2.69-1.06q-1.31 0-2.46.6-1.14.59-2.17 1.62v15.21h-5.06v-30.46zm31.12 9.43h5.06v21.03h-3.09q-1.01 0-1.27-.92l-.35-1.68q-1.29 1.31-2.85 2.12t-3.67.81q-1.72 0-3.04-.59-1.33-.58-2.23-1.65-.9-1.06-1.36-2.53-.46-1.46-.46-3.23v-13.36h5.06v13.36q0 1.93.89 2.99.89 1.05 2.68 1.05 1.31 0 2.46-.58 1.14-.59 2.17-1.61zm15.13 21.03h-5.06v-21.03h3.09q.98 0 1.29.92l.33 1.56q.55-.62 1.16-1.13.6-.51 1.29-.88t1.48-.59q.79-.21 1.73-.21 1.99 0 3.27 1.08 1.28 1.07 1.91 2.85.5-1.04 1.23-1.79.74-.75 1.62-1.22.89-.47 1.88-.7.99-.22 2-.22 1.74 0 3.09.53 1.36.53 2.28 1.56.92 1.02 1.4 2.5.49 1.48.49 3.38v13.39h-5.07v-13.39q0-2.01-.88-3.02-.88-1.02-2.58-1.02-.78 0-1.45.27-.66.27-1.17.77-.5.5-.79 1.26-.28.76-.28 1.74v13.39h-5.09v-13.39q0-2.11-.85-3.07-.85-.97-2.49-.97-1.1 0-2.06.55-.95.54-1.77 1.48zm34.34-14.88v9.43q.86 1.04 1.87 1.47 1.02.43 2.14.43 1.17 0 2.11-.42.93-.42 1.58-1.31.66-.89 1.01-2.27.35-1.39.35-3.32 0-3.46-1.15-5.01t-3.3-1.55q-1.46 0-2.54.67-1.09.67-2.07 1.88m0-15.58v12.01q1.27-1.33 2.82-2.12 1.54-.79 3.53-.79 1.83 0 3.29.72 1.47.71 2.5 2.06 1.04 1.34 1.59 3.25.55 1.9.55 4.28 0 2.56-.63 4.65-.64 2.09-1.81 3.58-1.18 1.49-2.84 2.31t-3.69.82q-.99 0-1.79-.2-.8-.19-1.47-.54-.68-.35-1.24-.85-.57-.5-1.08-1.12l-.23 1.42q-.12.53-.42.75-.29.23-.81.23h-3.34v-30.46zm22.59 10.35.35 1.66q.63-.64 1.34-1.18t1.5-.92q.78-.38 1.69-.6.9-.21 1.96-.21 1.73 0 3.06.58 1.33.59 2.22 1.64.89 1.06 1.36 2.52.46 1.47.46 3.23v13.39h-5.07v-13.39q0-1.92-.88-2.98t-2.68-1.06q-1.32 0-2.46.6-1.15.59-2.18 1.62v15.21h-5.06v-21.03h3.1q.98 0 1.29.92m29.85 14.68v-3.55q-2.2.1-3.69.38-1.5.28-2.4.71-.91.43-1.29 1-.39.58-.39 1.25 0 1.33.79 1.91.78.57 2.06.57 1.55 0 2.69-.56t2.23-1.71m-10.71-11.05-.9-1.62q3.63-3.32 8.74-3.32 1.84 0 3.3.6 1.45.61 2.46 1.68 1 1.08 1.52 2.58.53 1.49.53 3.28v13.28h-2.3q-.72 0-1.11-.22-.39-.21-.61-.87l-.45-1.51q-.8.71-1.56 1.26-.76.54-1.58.91t-1.75.56q-.94.2-2.06.2-1.34 0-2.46-.36-1.13-.36-1.95-1.08-.82-.71-1.27-1.78t-.45-2.48q0-.8.26-1.59.27-.79.88-1.51.6-.71 1.56-1.35.97-.64 2.37-1.11 1.41-.47 3.27-.77 1.87-.29 4.27-.35v-1.23q0-2.12-.91-3.13-.9-1.02-2.6-1.02-1.23 0-2.04.29t-1.42.65q-.62.36-1.12.64-.5.29-1.12.29-.53 0-.9-.28-.37-.27-.6-.64m20.57-4.55h5.08v21.03h-5.08zm5.78-6.13q0 .65-.27 1.23-.27.57-.71 1t-1.03.69q-.6.26-1.27.26-.66 0-1.24-.26-.59-.26-1.02-.69t-.68-1q-.26-.58-.26-1.23 0-.68.26-1.27.25-.6.68-1.03t1.02-.69q.58-.25 1.24-.25.67 0 1.27.25.59.26 1.03.69t.71 1.03q.27.59.27 1.27m4.53-3.3h5.06v30.46h-5.06z"/></svg>